<svg xmlns="http://www.w3.org/2000/svg" xmlns:xlink="http://www.w3.org/1999/xlink" xmlns:svgjs="http://svgjs.com/svgjs" version="1.1" width="512" height="512" x="0" y="0" viewBox="0 0 512 512" style="enable-background:new 0 0 512 512" xml:space="preserve" class=""><g><g xmlns="http://www.w3.org/2000/svg"><g><path d="m384.347 319.502c-.48-5.544 1.149-11.078 4.606-15.438.02-.025.04-.051.06-.076 35.444-44.645 59.227-94.117 45.99-151.518-2.121-9.198-4.89-18.255-8.401-27.02-15.267-38.11-47.803-66.224-90.273-66.224-20.541 0-39.532 6.634-54.949 17.877-19.409 14.154-45.768 14.154-65.177 0-15.416-11.242-34.407-17.877-54.949-17.877-42.47 0-75.007 28.114-90.273 66.224-3.511 8.764-6.279 17.822-8.401 27.02-13.238 57.401 10.545 106.873 45.99 151.518.02.025.04.051.06.076 3.457 4.36 5.086 9.895 4.606 15.438-1.853 21.402-3.289 42.92-6.238 64.101-3.341 24.001-4.674 49.678 3.673 72.857 8.005 22.23 37.038 60.6 64.762 44.02 22.072-13.2 15.721-49.789 15.606-71.065-.074-13.715 1.717-26.716 5.634-38.439 16.831-50.373 87.396-50.379 104.232-.007 3.919 11.725 5.711 24.728 5.636 38.447-.115 21.276-6.466 57.865 15.606 71.065 27.724 16.579 56.756-21.79 64.762-44.02 8.347-23.179 7.014-48.856 3.673-72.857-2.946-21.182-4.381-42.7-6.235-64.102z" fill="#eef5f6" data-original="#eef5f6" class=""/></g><g><path d="m390.581 383.604c3.347 24.005 4.675 49.678-3.666 72.854-7.652 21.238-34.494 57.2-61.046 45.922 18.431-7.122 34.214-30.438 39.789-45.922 8.351-23.176 7.013-48.849 3.676-72.854-2.947-21.178-5.72-48.094-7.578-69.502-.479-5.544 1.149-11.078 4.615-15.434.02-.03.04-.05.06-.08 35.443-44.644 60.563-88.713 47.317-146.123-2.118-9.19-4.885-18.251-8.401-27.012-13.965-34.874-42.396-61.376-79.657-65.622 3.496-.409 7.043-.609 10.639-.609 42.476 0 75.012 28.121 90.276 66.231 3.506 8.761 6.283 17.822 8.401 27.012 13.236 57.41-10.549 106.879-45.992 151.522-.02.03-.04.05-.06.08-3.456 4.356-5.085 9.89-4.605 15.434 1.847 21.408 3.286 42.925 6.232 64.103z" fill="#deecf1" data-original="#deecf1" class=""/></g><g><path d="m404.414 9.31c-7.147 15.155-27.845 52.165-64.319 64.755-2.827.976-2.827 4.996 0 5.971 36.474 12.59 57.172 49.6 64.319 64.755 1.143 2.424 4.596 2.424 5.739 0 7.147-15.155 27.845-52.165 64.319-64.755 2.827-.976 2.827-4.996 0-5.971-36.474-12.59-57.172-49.6-64.319-64.755-1.144-2.424-4.596-2.424-5.739 0z" fill="#99c7d6" data-original="#fec165" class=""/></g><g><path d="m474.474 80.04c-36.472 12.587-57.17 49.598-64.323 64.753-1.139 2.417-4.595 2.417-5.734 0-1.518-3.217-3.656-7.432-6.423-12.187 4.325-10.598 9.311-21.014 16.43-30.052 4-5.078 8.62-9.67 13.846-13.484 4.602-3.357 15.139-6.795 12.697-14.388-1.846-5.74-9.479-7.187-13.778-10.461-5.118-3.898-9.624-8.548-13.523-13.656-3.607-4.725-6.682-9.836-9.388-15.124-.908-1.774-7.228-12.318-6.284-13.94 2.767-4.755 4.905-8.971 6.423-12.187 1.139-2.428 4.595-2.428 5.734 0 7.152 15.154 27.851 52.165 64.323 64.752 2.827.97 2.827 4.996 0 5.974z" fill="#00688d" data-original="#fdb441" class=""/></g><g><path d="m57.136 196.232c-4.323 9.166-16.842 31.551-38.902 39.166-1.71.59-1.71 3.022 0 3.612 22.061 7.615 34.58 30 38.902 39.166.692 1.466 2.78 1.466 3.471 0 4.323-9.166 16.842-31.551 38.902-39.166 1.71-.59 1.71-3.022 0-3.612-22.061-7.615-34.58-30-38.902-39.166-.691-1.467-2.779-1.467-3.471 0z" fill="#99c7d6" data-original="#fec165" class=""/></g><g><path d="m99.505 239.005c-22.057 7.622-34.574 30.009-38.899 39.169-.689 1.468-2.777 1.468-3.466 0-1.129-2.387-2.817-5.684-5.095-9.38.519-.579.979-1.229 1.359-1.968 3.956-7.562 8.221-16.153 17.672-22.077 4.825-3.037 4.825-9.97 0-13.006-9.45-5.924-13.716-14.515-17.672-22.077-.569-1.099-1.309-2.018-2.148-2.767 2.677-4.216 4.625-8.002 5.884-10.669.689-1.468 2.777-1.468 3.466 0 4.325 9.17 16.842 31.557 38.899 39.169 1.718.589 1.718 3.016 0 3.606z" fill="#00688d" data-original="#fdb441" class=""/></g><g><path d="m40.404 336.724h-4.234v-4.234c0-4.138-3.354-7.492-7.492-7.492s-7.492 3.354-7.492 7.492v4.234h-4.234c-4.138 0-7.492 3.354-7.492 7.492s3.354 7.492 7.492 7.492h4.234v4.234c0 4.138 3.354 7.492 7.492 7.492s7.492-3.354 7.492-7.492v-4.234h4.234c4.138 0 7.492-3.354 7.492-7.492s-3.354-7.492-7.492-7.492z" fill="#000000" data-original="#000000" class=""/><path d="m394.121 308.646c44.317-55.822 59.386-105.983 47.422-157.861-2.268-9.834-5.211-19.296-8.747-28.121-.178-.445-.368-.882-.551-1.323 10.244-13.563 24.781-27.619 43.912-34.223 4.286-1.481 7.165-5.526 7.165-10.068 0-4.541-2.88-8.587-7.167-10.069-33.723-11.639-53.185-46.444-59.987-60.867-1.778-3.771-5.474-6.114-9.645-6.114s-7.868 2.343-9.646 6.115c-5.109 10.832-17.361 33.159-37.428 48.537-7.726-1.927-15.723-2.918-23.88-2.918-21.507 0-42.034 6.68-59.363 19.316-16.851 12.29-39.494 12.289-56.348 0-17.328-12.636-37.856-19.316-59.363-19.316-21.839 0-42.553 7.044-59.902 20.371-16.134 12.394-29.041 29.877-37.325 50.56-3.535 8.824-6.478 18.285-8.747 28.121-3.207 13.905-4.456 27.687-3.733 41.488-.147.25-.301.495-.427.762v.001c-3.955 8.385-15.24 28.607-34.571 35.279-3.786 1.307-6.33 4.88-6.33 8.888 0 4.01 2.544 7.582 6.33 8.889 19.332 6.672 30.616 26.894 34.57 35.28 1.57 3.328 4.831 5.395 8.512 5.395 3.68 0 6.941-2.067 8.512-5.396 1.445-3.064 3.873-7.71 7.311-12.697 7.36 13.053 16.42 26.334 27.232 39.953.004.006.069.087.074.093 2.261 2.852 3.331 6.451 3.012 10.137-.3 3.464-.589 6.93-.875 10.398-.34 4.125 2.727 7.743 6.851 8.083s7.742-2.727 8.083-6.85c.284-3.448.572-6.895.87-10.339.65-7.513-1.552-14.878-6.187-20.723-.005-.007-.071-.09-.076-.096-11.673-14.703-21.157-28.937-28.535-42.859 4.711-4.348 10.303-8.132 16.811-10.378 3.786-1.307 6.33-4.88 6.33-8.889s-2.544-7.581-6.33-8.888c-19.331-6.672-30.616-26.894-34.57-35.28-.422-.895-.975-1.689-1.617-2.386-.581-12.18.544-24.306 3.355-36.496 2.096-9.086 4.806-17.806 8.056-25.916 15.431-38.521 46.577-61.519 83.317-61.519 18.313 0 35.787 5.685 50.535 16.438 22.133 16.142 51.874 16.142 74.005 0 14.747-10.753 32.221-16.438 50.534-16.438.657 0 1.312.011 1.966.026-.217.077-.428.164-.646.24-4.286 1.481-7.166 5.526-7.166 10.068 0 4.541 2.88 8.587 7.167 10.069 7.724 2.665 15.237 6.76 22.333 12.173 3.291 2.507 7.991 1.876 10.501-1.415 2.509-3.29 1.876-7.991-1.415-10.501-5.347-4.078-10.922-7.532-16.66-10.325 28.053-13.66 45.897-40.147 54.873-56.814 8.976 16.667 26.82 43.154 54.872 56.813-28.052 13.659-45.894 40.143-54.87 56.811-3.117-5.795-7.269-12.71-12.518-19.853-2.452-3.334-7.139-4.049-10.474-1.601-3.334 2.451-4.05 7.14-1.601 10.474 7.164 9.747 12.081 19.032 14.946 25.105 1.778 3.771 5.475 6.115 9.646 6.115s7.867-2.343 9.645-6.115c1.407-2.983 3.364-6.845 5.867-11.185 1.885 5.582 3.531 11.385 4.906 17.352 10.858 47.08-3.3 93.21-44.517 145.127-.014.018-.088.111-.102.129-4.65 5.863-6.85 13.229-6.199 20.739.4 4.629.781 9.263 1.163 13.898 1.366 16.614 2.779 33.792 5.117 50.591 2.812 20.185 4.976 46.302-3.301 69.285-4.803 13.34-19.604 35.824-36.117 41.723-6.354 2.269-12.16 1.748-17.75-1.594-14.518-8.682-13.337-32.962-12.388-52.471.211-4.319.409-8.397.429-12.123.08-14.916-1.946-28.664-6.023-40.864-8.71-26.057-31.956-42.894-59.222-42.892-27.268.001-50.514 16.841-59.221 42.901-4.075 12.195-6.101 25.94-6.021 40.855.021 3.726.219 7.804.429 12.123.949 19.509 2.131 43.789-12.388 52.471-5.588 3.342-11.393 3.864-17.75 1.594-16.512-5.898-31.314-28.384-36.118-41.723-8.276-22.981-6.111-49.099-3.301-69.285.813-5.839 1.556-12.008 2.273-18.86.43-4.116-2.557-7.8-6.673-8.231-4.112-.442-7.8 2.556-8.231 6.672-.698 6.681-1.422 12.685-2.211 18.353-3.048 21.892-5.342 50.364 4.045 76.428 5.532 15.362 22.689 42.725 45.175 50.758 10.535 3.763 21.075 2.779 30.48-2.846 22.231-13.294 20.748-43.791 19.665-66.058-.202-4.152-.393-8.075-.411-11.477-.071-13.269 1.695-25.389 5.248-36.025 8.047-24.083 28.527-32.664 45.01-32.665 16.482-.001 36.962 8.578 45.01 32.657 3.556 10.639 5.323 22.762 5.25 36.032-.019 3.403-.209 7.324-.411 11.478-1.084 22.268-2.567 52.764 19.663 66.058 5.661 3.385 11.732 5.089 17.966 5.089 4.125 0 8.321-.745 12.515-2.244 22.486-8.033 39.642-35.397 45.175-50.758 9.388-26.067 7.092-54.538 4.045-76.428-2.28-16.38-3.676-33.346-5.025-49.753-.382-4.656-.766-9.312-1.169-13.963-.319-3.684.75-7.282 2.971-10.082.012-.021.086-.113.099-.13zm-308.227-71.443c-12.66 7.692-21.526 19.296-27.023 28.396-5.497-9.1-14.363-20.704-27.023-28.396 12.659-7.691 21.525-19.295 27.023-28.395 5.498 9.1 14.365 20.704 27.023 28.395z" fill="#000000" data-original="#000000" class=""/><path d="m495.049 148.305h-4.234v-4.234c0-4.138-3.354-7.492-7.492-7.492s-7.492 3.354-7.492 7.492v4.234h-4.234c-4.138 0-7.492 3.354-7.492 7.492s3.354 7.492 7.492 7.492h4.234v4.234c0 4.138 3.354 7.492 7.492 7.492s7.492-3.354 7.492-7.492v-4.234h4.234c4.138 0 7.492-3.354 7.492-7.492s-3.354-7.492-7.492-7.492z" fill="#000000" data-original="#000000" class=""/><path d="m58.872 49.365h4.234v4.234c0 4.138 3.354 7.492 7.492 7.492s7.492-3.354 7.492-7.492v-4.234h4.234c4.138 0 7.492-3.354 7.492-7.492s-3.354-7.492-7.492-7.492h-4.234v-4.235c0-4.138-3.354-7.492-7.492-7.492s-7.492 3.354-7.492 7.492v4.235h-4.234c-4.138 0-7.492 3.354-7.492 7.492 0 4.139 3.354 7.492 7.492 7.492z" fill="#000000" data-original="#000000" class=""/></g></g></g></svg>
