<?xml version="1.0" encoding="iso-8859-1"?>
<!-- Generator: Adobe Illustrator 19.0.0, SVG Export Plug-In . SVG Version: 6.00 Build 0)  -->
<svg version="1.1" id="Capa_1" xmlns="http://www.w3.org/2000/svg" xmlns:xlink="http://www.w3.org/1999/xlink" x="0px" y="0px"
	 viewBox="0 0 512 512" style="enable-background:new 0 0 512 512;" xml:space="preserve">
<path style="fill:#5C5560;" d="M512,256c0,14.817-1.254,29.341-3.688,43.468c-2.717,15.914-6.907,31.326-12.424,46.09
	c-6.311,16.938-14.388,33.019-23.991,48.034c-0.888,1.411-1.808,2.8-2.727,4.19c0,0,0,0,0,0.01
	c-12.257,18.401-26.833,35.119-43.311,49.737C380.667,487.643,321.181,512,256,512s-124.677-24.357-169.869-64.47
	c-16.478-14.629-31.044-31.347-43.301-49.737c-0.93-1.39-1.839-2.79-2.738-4.2c-9.592-15.015-17.669-31.096-23.98-48.034
	c-5.517-14.764-9.707-30.177-12.424-46.09C1.254,285.341,0,270.817,0,256c0-26.634,4.065-52.328,11.619-76.476
	c1.714-5.496,3.615-10.909,5.684-16.238C54.45,67.73,147.31,0,256,0s201.55,67.73,238.696,163.286
	c2.069,5.329,3.971,10.742,5.684,16.238C507.935,203.671,512,229.366,512,256z"/>
<path style="fill:#F94B8B;" d="M494.696,163.286H17.304C54.45,67.73,147.31,0,256,0S457.55,67.73,494.696,163.286z"/>
<g>
	<path style="fill:#C73873;" d="M510.289,135.773c0,7.993-0.658,15.935-1.954,23.751c-3.542,21.567-11.912,42.162-24.586,60.207
		H369.876c-0.01-31.451-25.496-56.936-56.936-56.936c-31.451,0-56.936,25.485-56.947,56.936H28.236
		c-8.631-12.288-15.266-25.767-19.738-39.926c-2.09-6.635-3.72-13.416-4.848-20.292v-0.01c-1.285-7.805-1.944-15.747-1.944-23.73
		c0-9.383,7.607-16.99,16.98-16.99h474.614c4.692,0,8.934,1.902,12.016,4.974C508.388,126.839,510.289,131.081,510.289,135.773z"/>
	<path style="fill:#C73873;" d="M471.897,393.592c-0.888,1.411-1.808,2.8-2.727,4.19c0,0,0,0,0,0.01
		c-0.063,0.094-0.125,0.188-0.188,0.282c-7.314,10.951-15.454,21.295-24.315,30.96C397.876,480.037,330.668,512,256,512
		s-141.876-31.963-188.667-82.965c-8.861-9.665-17-19.999-24.304-30.95c-0.01-0.01-0.01-0.01-0.01-0.01
		c-0.063-0.094-0.125-0.188-0.188-0.282c-0.93-1.39-1.839-2.79-2.738-4.201L471.897,393.592L471.897,393.592z"/>
</g>
<path style="fill:#F7F7F7;" d="M85.18,162.797L85.18,162.797c-31.446,0-56.939,25.492-56.939,56.939v60.367
	c0,10.694,8.668,19.362,19.362,19.362h75.154c10.693,0,19.362-8.668,19.362-19.362v-60.367
	C142.119,188.29,116.626,162.797,85.18,162.797z"/>
<g>
	<path style="fill:#E8E8E8;" d="M28.244,219.732v60.374c0,10.689-8.673,19.362-19.362,19.362H3.688
		c-1.985-11.536-3.187-23.333-3.553-35.338C0.042,261.423,0,258.717,0,256c0-0.773,0-1.546,0.01-2.32
		c0.031-3.5,0.136-6.99,0.303-10.449c0.167-3.511,0.408-6.99,0.721-10.449c1.651-18.38,5.245-36.206,10.585-53.258
		C21.891,189.827,28.244,204.037,28.244,219.732z"/>
	<path style="fill:#E8E8E8;" d="M512,256c0,2.717-0.042,5.423-0.136,8.129c-0.366,12.006-1.567,23.803-3.553,35.338h-5.193
		c-10.7,0-19.362-8.673-19.362-19.362v-60.374c0-15.694,6.353-29.905,16.624-40.208c5.339,17.053,8.934,34.879,10.585,53.258
		c0.313,3.459,0.554,6.938,0.721,10.449c0.167,3.459,0.272,6.949,0.303,10.449C512,254.454,512,255.227,512,256z"/>
</g>
<path style="fill:#F7F7F7;" d="M255.993,219.741v75.536c0,10.689-8.662,19.362-19.362,19.362h-75.149
	c-10.689,0-19.362-8.673-19.362-19.362v-75.536c0-31.451,25.495-56.947,56.936-56.947
	C230.508,162.794,255.993,188.29,255.993,219.741z"/>
<g>
	<path style="fill:#E8E8E8;" d="M47.05,280.103v-60.366c0-28.242,20.566-51.667,47.534-56.152c-3.061-0.509-6.199-0.787-9.404-0.787
		l0,0c-31.446,0-56.939,25.492-56.939,56.939v60.366c0,10.694,8.668,19.362,19.362,19.362h18.808
		C55.718,299.465,47.05,290.796,47.05,280.103z"/>
	<path style="fill:#E8E8E8;" d="M160.927,295.272v-75.537c0-28.242,20.566-51.667,47.535-56.152
		c-3.061-0.509-6.199-0.787-9.404-0.787l0,0c-31.446,0-56.939,25.492-56.939,56.939v75.537c0,10.692,8.668,19.362,19.362,19.362
		h18.808C169.595,314.634,160.927,305.966,160.927,295.272z"/>
</g>
<path style="fill:#F7F7F7;" d="M483.749,219.741v60.364c0,10.689-8.662,19.362-19.362,19.362h-75.149
	c-10.7,0-19.362-8.673-19.362-19.362v-60.364c0-31.451,25.496-56.947,56.936-56.947C458.264,162.794,483.749,188.29,483.749,219.741
	z"/>
<path style="fill:#E8E8E8;" d="M388.682,280.103v-60.366c0-28.242,20.566-51.667,47.534-56.152c-3.06-0.509-6.199-0.787-9.404-0.787
	l0,0c-31.446,0-56.939,25.492-56.939,56.939v60.366c0,10.694,8.668,19.362,19.362,19.362h18.808
	C397.351,299.465,388.682,290.796,388.682,280.103z"/>
<path style="fill:#F7F7F7;" d="M291.511,430.803L291.511,430.803c19.614,0,35.514-15.9,35.514-35.514v-37.652
	c0-6.67-5.406-12.076-12.076-12.076h-46.875c-6.67,0-12.076,5.406-12.076,12.076v37.652
	C255.997,414.903,271.897,430.803,291.511,430.803z"/>
<path style="fill:#E8E8E8;" d="M267.728,357.637v37.652c0,17.615,12.827,32.226,29.649,35.024c-1.909,0.318-3.866,0.491-5.866,0.491
	l0,0c-19.614,0-35.514-15.9-35.514-35.514v-37.653c0-6.67,5.406-12.077,12.076-12.077h11.731
	C273.134,345.56,267.728,350.968,267.728,357.637z"/>
<path style="fill:#F7F7F7;" d="M362.539,430.803L362.539,430.803c19.614,0,35.514-15.9,35.514-35.514v-37.652
	c0-6.67-5.406-12.076-12.076-12.076h-46.875c-6.67,0-12.076,5.406-12.076,12.076v37.652
	C327.025,414.903,342.925,430.803,362.539,430.803z"/>
<path style="fill:#E8E8E8;" d="M338.756,357.637v37.652c0,17.615,12.827,32.226,29.649,35.024c-1.909,0.318-3.866,0.491-5.866,0.491
	l0,0c-19.614,0-35.514-15.9-35.514-35.514v-37.653c0-6.67,5.406-12.077,12.076-12.077h11.731
	C344.163,345.56,338.756,350.968,338.756,357.637z"/>
<path style="fill:#F7F7F7;" d="M469.086,357.637v37.648c0,0.94-0.031,1.87-0.104,2.79c-7.314,10.951-15.454,21.295-24.315,30.96
	c-3.49,1.149-7.22,1.766-11.097,1.766c-19.613,0-35.516-15.893-35.516-35.516v-37.648c0-6.666,5.402-12.079,12.079-12.079h46.874
	C463.673,345.558,469.086,350.971,469.086,357.637z"/>
<g>
	<path style="fill:#E8E8E8;" d="M409.785,357.637v37.652c0,17.615,12.827,32.226,29.649,35.024
		c-1.909,0.318-3.866,0.491-5.866,0.491l0,0c-19.614,0-35.514-15.9-35.514-35.514v-37.653c0-6.67,5.406-12.077,12.076-12.077h11.731
		C415.191,345.56,409.785,350.968,409.785,357.637z"/>
	<path style="fill:#E8E8E8;" d="M495.888,345.558c-4.817,12.915-10.658,25.339-17.418,37.157c-2.017,3.542-4.117,7.022-6.301,10.449
		c-0.982,1.557-1.985,3.093-2.999,4.618c-0.052-0.825-0.084-1.661-0.084-2.497v-37.648c0-6.666,5.402-12.079,12.069-12.079H495.888z
		"/>
</g>
<path style="fill:#F7F7F7;" d="M220.483,430.803L220.483,430.803c19.614,0,35.514-15.9,35.514-35.514v-37.652
	c0-6.67-5.406-12.076-12.076-12.076h-46.875c-6.67,0-12.076,5.406-12.076,12.076v37.652
	C184.968,414.903,200.868,430.803,220.483,430.803z"/>
<path style="fill:#E8E8E8;" d="M196.699,357.637v37.652c0,17.615,12.827,32.226,29.649,35.024c-1.909,0.318-3.866,0.491-5.866,0.491
	l0,0c-19.614,0-35.514-15.9-35.514-35.514v-37.653c0-6.67,5.406-12.077,12.076-12.077h11.731
	C202.106,345.56,196.699,350.968,196.699,357.637z"/>
<path style="fill:#F7F7F7;" d="M149.454,430.803L149.454,430.803c19.614,0,35.514-15.9,35.514-35.514v-37.652
	c0-6.67-5.406-12.076-12.076-12.076h-46.875c-6.67,0-12.076,5.406-12.076,12.076v37.652
	C113.94,414.903,129.84,430.803,149.454,430.803z"/>
<path style="fill:#E8E8E8;" d="M125.671,357.637v37.652c0,17.615,12.827,32.226,29.649,35.024c-1.909,0.318-3.866,0.491-5.866,0.491
	l0,0c-19.614,0-35.514-15.9-35.514-35.514v-37.653c0-6.67,5.406-12.077,12.076-12.077h11.731
	C131.077,345.56,125.671,350.968,125.671,357.637z"/>
<path style="fill:#F7F7F7;" d="M113.936,357.637v37.648c0,19.623-15.893,35.516-35.506,35.516c-3.877,0-7.607-0.616-11.097-1.766
	c-8.861-9.665-17-19.999-24.304-30.95c-0.01-0.01-0.01-0.01-0.01-0.01c-0.073-0.92-0.104-1.849-0.104-2.79v-37.648
	c0-6.666,5.402-12.079,12.079-12.079h46.874C108.534,345.558,113.936,350.971,113.936,357.637z"/>
<g>
	<path style="fill:#E8E8E8;" d="M84.292,430.31c-1.912,0.324-3.866,0.491-5.862,0.491c-3.877,0-7.607-0.616-11.097-1.766
		c-8.861-9.665-17-20.01-24.315-30.96c-0.073-0.92-0.104-1.849-0.104-2.79v-37.648c0-6.666,5.402-12.079,12.079-12.079h11.724
		c-6.666,0-12.079,5.413-12.079,12.079v37.648C54.638,412.902,67.469,427.52,84.292,430.31z"/>
	<path style="fill:#E8E8E8;" d="M42.914,357.637v37.648c0,0.846-0.031,1.682-0.084,2.508c-1.024-1.526-2.027-3.072-3.009-4.629
		c-2.184-3.427-4.284-6.917-6.301-10.449c-6.76-11.828-12.591-24.242-17.408-37.157h14.723
		C37.501,345.558,42.914,350.971,42.914,357.637z"/>
</g>
<g>
	<path style="fill:#F94B8B;" d="M510.289,135.774c0,7.993-0.658,15.935-1.954,23.751c-9.373,20.804-38.619-14.702-79.705-14.702
		c-41.096,0-39.006,20.898-54.335,20.898s-24.377-22.988-67.574-22.988c-34.826,0-33.311,25.078-50.73,25.078
		c-17.408,0-15.893-25.078-50.73-25.078c-43.186,0-52.245,22.988-67.563,22.988c-15.329,0-13.239-20.898-54.335-20.898
		S13.012,180.339,3.65,159.514v-0.01c-1.285-7.805-1.944-15.747-1.944-23.73c0-9.383,7.607-16.99,16.98-16.99h474.614
		c4.692,0,8.934,1.902,12.016,4.974C508.388,126.84,510.289,131.082,510.289,135.774z"/>
	<path style="fill:#F94B8B;" d="M425.859,447.53C380.667,487.643,321.181,512,256,512s-124.677-24.357-169.869-64.47
		c10.261-4.159,19.352-9.958,26.718-9.958c11.494,0,21.42,16.196,38.139,16.196s18.808-19.331,31.869-19.331
		c13.061,0,24.033,19.853,39.184,19.853c15.151,0,16.196-18.286,33.959-18.286s18.798,18.286,33.949,18.286
		c15.151,0,26.122-19.853,39.184-19.853s15.151,19.331,31.869,19.331s26.645-16.196,38.139-16.196
		C406.507,437.572,415.598,443.371,425.859,447.53z"/>
</g>
<g>
</g>
<g>
</g>
<g>
</g>
<g>
</g>
<g>
</g>
<g>
</g>
<g>
</g>
<g>
</g>
<g>
</g>
<g>
</g>
<g>
</g>
<g>
</g>
<g>
</g>
<g>
</g>
<g>
</g>
</svg>
