<svg enable-background="new 0 0 64 64" height="25" viewBox="0 0 64 64" width="25" xmlns="http://www.w3.org/2000/svg"><g id="CANADA"><g><path d="m2.8 14.966h13.739v34.067h-13.739z" fill="#e91e26"/><path d="m47.462 14.966h13.738v34.067h-13.738z" fill="#e91e26"/><path d="m16.539 14.966v34.067h30.923v-34.067zm21.23 23.054.491 1.667c-1.92-.229-3.639-.439-5.559-.671-.167 0-.425.17-.425.369l.15 6.093h-.936l.256-6.107c.002-.204-.284-.355-.454-.355-1.914.232-3.637.442-5.553.671l.486-1.667c.083-.293-.032-.61-.25-.788l-5.574-4.717 1.154-.564c.506-.188.368-.485.184-1.204l-.85-3.22 3.236.712c.317.05.528-.163.574-.359l.417-1.514 2.559 2.985c.363.478 1.103.478.872-.628l-1.095-6.05 1.469.794c.413.235.824.28 1.053-.148l2.026-3.935 2.025 3.935c.227.428.641.383 1.055.148l1.462-.794-1.091 6.05c-.23 1.106.507 1.106.87.628l2.561-2.985.416 1.514c.047.197.256.409.574.359l3.236-.712-.852 3.22c-.182.719-.324 1.016.184 1.204l1.154.564-5.572 4.717c-.216.178-.329.495-.253.788z" fill="#f3f3f3"/><path d="m43.595 32.515-1.155-.565c-.508-.188-.365-.485-.184-1.204l.852-3.22-3.236.712c-.318.05-.527-.163-.574-.359l-.416-1.514-2.561 2.985c-.363.478-1.101.478-.87-.628l1.091-6.05-1.462.794c-.414.235-.828.28-1.055-.148l-2.025-3.934-2.027 3.935c-.229.428-.64.383-1.053.148l-1.469-.794 1.095 6.05c.231 1.106-.508 1.106-.872.628l-2.559-2.985-.417 1.514c-.046.197-.257.409-.574.359l-3.236-.712.85 3.22c.184.719.322 1.016-.184 1.204l-1.154.564 5.574 4.717c.218.178.333.495.25.788l-.486 1.667c1.917-.229 3.64-.439 5.553-.671.17 0 .456.151.454.355l-.256 6.107h.936l-.15-6.093c0-.199.258-.369.425-.369 1.92.232 3.639.442 5.559.671l-.491-1.667c-.075-.293.037-.61.254-.788z" fill="#e81d26"/></g></g></svg>