<svg fill="none" height="25" viewBox="0 0 512 512" width="25" xmlns="http://www.w3.org/2000/svg"><path d="m32 96h448v320h-448z" fill="#fbfbfb"/><path d="m32 96h448v104h-448z" fill="#e92b2b"/><path d="m32 312h448v104h-448z" fill="#1d1d1d"/><path d="m253.145 221.726-9.138 18.276-20.871-6.957c-1.713-.571-3.558.387-4.077 2.116l-9.436 31.452c-.713 2.377 1.434 4.626 3.841 4.024l26.543-6.635-4 20c3.677 7.354 11.194 12 19.416 12h1.167c8.223 0 15.74-4.646 19.417-12l-4-20 26.542 6.635c2.408.602 4.554-1.647 3.841-4.024l-9.435-31.452c-.519-1.729-2.365-2.687-4.077-2.116l-20.871 6.957-9.138-18.276c-1.179-2.359-4.545-2.359-5.724 0z" fill="#ffe70e"/></svg>