<svg fill="none" height="25" viewBox="0 0 512 512" width="25" xmlns="http://www.w3.org/2000/svg"><path d="m480 416h-448v-320h448z" fill="#fbfbfb"/><path d="m480 312v104h-448v-104z" fill="#32ab45"/><path d="m480 96v104h-448v-104z" fill="#1d1d1d"/><path d="m224 256-192-160v320z" fill="#e92b2b"/><path clip-rule="evenodd" d="m102.907 236.115-6.8649-20.115-6.7848 19.882-17.6774-12.404 6.7226 20.163h-22.2182l17.7655 12.289-17.8498 12.173 22.2125.143-6.8657 20.118 17.7694-12.292 6.6444 19.928 7.0064-20.067 17.97 12.431-6.787-19.888 21.964.141-17.883-12.547 17.969-12.429h-21.959l6.928-19.845z" fill="#fbfbfb" fill-rule="evenodd"/></svg>